<?xml version="1.0" encoding="UTF-8" standalone="no"?>
<!DOCTYPE svg PUBLIC "-//W3C//DTD SVG 1.1//EN" "http://www.w3.org/Graphics/SVG/1.1/DTD/svg11.dtd">
<svg version="1.1" xmlns="http://www.w3.org/2000/svg" xmlns:xlink="http://www.w3.org/1999/xlink" preserveAspectRatio="xMidYMid meet" viewBox="0 0 520 353" width="520" height="353"><defs><path d="M501.03 10.56C506.48 10.56 510.89 14.97 510.89 20.41C510.89 84.99 510.89 268.87 510.89 333.45C510.89 338.89 506.48 343.3 501.03 343.3C403 343.3 118.77 343.3 20.74 343.3C15.3 343.3 10.89 338.89 10.89 333.45C10.89 268.87 10.89 84.99 10.89 20.41C10.89 14.97 15.3 10.56 20.74 10.56C118.77 10.56 403 10.56 501.03 10.56Z" id="c1mZ6mwEJE"></path><path d="M264.57 176.93L514.57 176.93L514.57 177.91L264.57 177.91L264.57 176.93Z" id="g1vsuz8Qm9"></path><path d="M264.74 10.52L264.74 349.54L263.4 349.54L263.4 10.52L264.74 10.52Z" id="ctERv6LCd"></path></defs><g><g><g><use xlink:href="#c1mZ6mwEJE" opacity="1" fill="#ffc3a8" fill-opacity="1"></use><g><use xlink:href="#c1mZ6mwEJE" opacity="1" fill-opacity="0" stroke="#000000" stroke-width="20" stroke-opacity="1"></use></g></g><g><use xlink:href="#g1vsuz8Qm9" opacity="1" fill="#000000" fill-opacity="1"></use><g><use xlink:href="#g1vsuz8Qm9" opacity="1" fill-opacity="0" stroke="#000000" stroke-width="5" stroke-opacity="1"></use></g></g><g><use xlink:href="#ctERv6LCd" opacity="1" fill="#000000" fill-opacity="1"></use><g><use xlink:href="#ctERv6LCd" opacity="1" fill-opacity="0" stroke="#000000" stroke-width="5" stroke-opacity="1"></use></g></g></g></g></svg>