<?xml version="1.0" encoding="UTF-8" standalone="no"?>
<!DOCTYPE svg PUBLIC "-//W3C//DTD SVG 1.1//EN" "http://www.w3.org/Graphics/SVG/1.1/DTD/svg11.dtd">
<svg version="1.1" xmlns="http://www.w3.org/2000/svg" xmlns:xlink="http://www.w3.org/1999/xlink" preserveAspectRatio="xMidYMid meet" viewBox="0 0 520 353" width="520" height="353"><defs><path d="M501.55 11.31C506.99 11.33 511.39 15.75 511.37 21.19C511.17 85.77 510.6 269.65 510.4 334.23C510.38 339.67 505.96 344.07 500.52 344.05C402.49 343.74 118.25 342.86 20.22 342.56C14.78 342.54 10.38 338.12 10.4 332.67C10.6 268.1 11.17 84.22 11.37 19.64C11.39 14.2 15.81 9.8 21.26 9.82C119.28 10.12 403.52 11.01 501.55 11.31Z" id="j2479o7eS"></path><path d="M264.57 176.93L514.57 176.93L514.57 177.91L264.57 177.91L264.57 176.93Z" id="g1vsuz8Qm9"></path><path d="M264.74 10.52L264.74 349.54L263.4 349.54L263.4 10.52L264.74 10.52Z" id="ctERv6LCd"></path></defs><g><g><g><use xlink:href="#j2479o7eS" opacity="1" fill="#fcd2ff" fill-opacity="1"></use><g><use xlink:href="#j2479o7eS" opacity="1" fill-opacity="0" stroke="#000000" stroke-width="20" stroke-opacity="1"></use></g></g><g><use xlink:href="#g1vsuz8Qm9" opacity="1" fill="#000000" fill-opacity="1"></use><g><use xlink:href="#g1vsuz8Qm9" opacity="1" fill-opacity="0" stroke="#000000" stroke-width="5" stroke-opacity="1"></use></g></g><g><use xlink:href="#ctERv6LCd" opacity="1" fill="#000000" fill-opacity="1"></use><g><use xlink:href="#ctERv6LCd" opacity="1" fill-opacity="0" stroke="#000000" stroke-width="5" stroke-opacity="1"></use></g></g></g></g></svg>